# xmcd
#
# Track frame offsets: 
#        150
#        12887
#        24892
#        39935
#        58674
#        76577
#        93685
#        110477
#        123554
#        136131
#        149471
#        166499
#        181199
#        190895
#
# Disc length: 2868 seconds
#
# Revision: 0
# Processed by: cddbd v1.5.2PL0 Copyright (c) Steve Scherf et al.
# Submitted via: ExactAudioCopy v0.95b3
#
DISCID=b00b320e
DTITLE=The Siekers - Texas
DYEAR=2005
DGENRE=Country
TTITLE0=Texas
TTITLE1=Bluebonnet Girl
TTITLE2=Promised Land
TTITLE3=Wayfaring Stranger
TTITLE4=The Gift
TTITLE5=The Old Frontier
TTITLE6=Home
TTITLE7=You Can See Texas From the Moon
TTITLE8=Galveston Rain
TTITLE9=White Freightliner Blues
TTITLE10=Grapes on the Vine
TTITLE11=Saradora's
TTITLE12=Pretend I Never Happened
TTITLE13=The Man With The Big Hat
EXTD=
EXTT0=
EXTT1=
EXTT2=
EXTT3=
EXTT4=
EXTT5=
EXTT6=
EXTT7=
EXTT8=
EXTT9=
EXTT10=
EXTT11=
EXTT12=
EXTT13=
PLAYORDER=
